<svg xmlns="http://www.w3.org/2000/svg" width="366.85mm" height="95.59mm" viewBox="0 0 1039.89 270.96">
  <defs>
    <style>
      .a {
        fill: white;
      }
    </style>
  </defs>
  <title>mscrde</title>
  <path class="a" d="M199.69,1.51V145.57H177.62V37L110.08,145.57H89.47L22.15,37.17v108.4H0V1.51H24.19L99.85,123.72,175.5,1.51ZM369.87,95.87c2.15,12.84-.49,26.47-11.74,36.37-23.34,20.56-99.78,21.89-126.94-1.88-14.7-12.87-15-33.3-15-33.3l22.43,0a29.48,29.48,0,0,0,16.28,24.37c17.06,8.92,59.31,8.31,79.07-.06,15.79-6.7,18.16-21.52,10.1-29.76-7-7.13-26.52-7.8-50.19-8.1-33.24-.42-56.24-2.21-67.8-14.89-9.42-10.33-11-28-2.5-40.75C245.13-4.74,307.28,1.44,316.05,3.21c14.68,3,35,8.89,46.53,32.67a36.57,36.57,0,0,1,3.89,15.73l-21.71.06s-.35-11.05-7.73-18.74c-9.32-9.71-28.54-13.79-46.87-13.3-19.45.54-37,5.43-44.75,13.62C242,36.9,239,43.46,240.79,49.41c1.75,5.64,11.51,10.23,22.37,11.29,23.32,2.29,47.79.11,70.72,3.94C350.84,67.47,366.58,76.27,369.87,95.87ZM568.09,90c-9.47,32.8-46.74,57.31-91.38,57.31-51.81,0-93.81-33-93.81-73.64S424.9,0,476.71,0c44.95,0,82.36,24.89,91.5,58H544.07C535.69,35.42,508.59,18.8,476.3,18.8c-39,0-70.58,24.14-70.58,53.9s31.6,53.89,70.58,53.89c31.06,0,57.33-15.34,66.76-36.62Zm155.55,35.9c1.76,12.36,2.09,19.53,2.09,19.53H699.68s.47-18.36-4.35-31.29a43,43,0,0,0-16.16-20c-6.59-4.53-22.22-7-31.43-6.89-18.86,0-42,0-42,0l.07,58.21h-.07v.14H583.61V1.51h22.08C616.51,1.43,653,1.07,665,1.43c13.74.44,26.39.66,36.11,5.19C715,13.06,723.3,26.5,723.88,45.51c.66,20.54-10.4,34-34.26,37.71-5.63.87-15.46,1.17-15.46,1.17,11.26,1.44,21.72,3.06,32.11,9.85C719.21,102.7,722.33,117.17,723.64,125.87Zm-56-57.05c22.11-1.24,34.14-8.36,32.9-25.72s-14-23.61-37.76-23.76c-14.13-.07-47.26.07-57,.15V68.68S650.49,69.78,667.6,68.82Zm241,4.57c0,41.59-26.57,67.38-75.78,71.11-16.53,1.25-50.07,1.1-64.68,1H746.09V1.46h22.08c15-.22,50.39-1.21,69,.85C881.82,7.26,908.63,36.34,908.63,73.39Zm-24.32,0C883.58,44,864.5,26.9,835.63,21.78c-16.45-2.92-52.92-2.12-67.46-1.9v105.4c13.81.22,45.53.65,65.49-1.61C867.28,119.87,885,100.35,884.31,73.38Zm64.24-52.87.05,42.37,64.79,0V81.79l-64.79,0-.05,44.32h91.34v19.44H926.47V1.51h113.42v19Zm-590.15,225c0-14.75,9.74-25.67,22.33-25.67,9.64,0,14.07,5.7,15.74,14.07V220.79h7.87V270h-7.18s-.69-6.59-.69-9.84v-5.31C394.7,263,390.08,271,379.75,271,368.14,271,358.4,260.34,358.4,245.48Zm38.07,0c0-10.82-4.92-18.2-14.76-18.2s-15.44,7.68-15.44,18.2,6.49,18,15.44,18C391.75,263.48,396.47,255.32,396.47,245.48Zm39.29-24.69V210h7.87v10.79h10.53v7.38H443.63V270h-7.87V228.17H425.24v-7.38Zm76.2,31c-1.57,9.54-9.25,16.82-20.66,16.82C477.53,268.65,467,258,467,243.17s10.13-25.67,23.8-25.67c14.27,0,22.43,9.74,21.45,27.64H474.88c.88,9.64,7.28,16.13,16.42,16.13,6.69,0,11.61-3.83,13.28-9.44Zm-36.59-13.77h28.82c-.59-8.66-6.29-13.18-13.08-13.18C482.94,224.88,477.24,230,475.37,238.06Zm65.43-32.32V270h-7.87V205.74Zm31.77,0h-7.66v7.14h7.66Zm-7.76,15V270h7.86V220.79Zm73.09,31c-1.57,9.54-9.25,16.82-20.66,16.82-13.77,0-24.3-10.62-24.3-25.48s10.14-25.67,23.81-25.67c14.27,0,22.43,9.74,21.45,27.64H600.81c.89,9.64,7.29,16.13,16.43,16.13,6.69,0,11.61-3.83,13.29-9.44Zm-36.59-13.77h28.82c-.59-8.66-6.3-13.18-13.08-13.18C608.88,224.88,603.18,230,601.31,238.06Zm64.44-17.27v13.48c1.38-5.51,5.51-14.46,15.74-14.46v8.36c-9,0-14,7.08-15.74,13.28V270h-7.87V220.79Z"/>
</svg>
